<?xml version="1.0" encoding="utf-8"?>
<!-- Generator: Adobe Illustrator 15.0.0, SVG Export Plug-In . SVG Version: 6.00 Build 0)  -->
<!DOCTYPE svg PUBLIC "-//W3C//DTD SVG 1.1//EN" "http://www.w3.org/Graphics/SVG/1.1/DTD/svg11.dtd">
<svg version="1.1" id="Layer_1" xmlns="http://www.w3.org/2000/svg" xmlns:xlink="http://www.w3.org/1999/xlink" x="0px" y="0px"
	 width="245px" height="74px" viewBox="0 0 245 74" enable-background="new 0 0 245 74" xml:space="preserve">
<g>
	<g>
		<path fill="#6D8D24" d="M169.921,13.235c0-1.58,1.279-2.86,2.865-2.86c1.583,0,2.864,1.28,2.864,2.86
			c0,1.584-1.281,2.862-2.864,2.862C171.2,16.098,169.921,14.819,169.921,13.235z"/>
		<path fill="#6D8D24" d="M73.788,24.63h12.554c0.234,0,0.421-0.185,0.421-0.417v-4.954c0-0.227-0.187-0.423-0.421-0.423H73.788
			c-3.421,0-6.204,2.619-6.204,5.838v17.159c0,3.221,2.783,5.979,6.204,5.979h12.546c0.234,0,0.429-0.194,0.429-0.425v-5.048
			c0-0.236-0.194-0.425-0.429-0.425H73.788c-0.225,0-0.411,0.043-0.411-0.223V24.877C73.377,24.643,73.563,24.63,73.788,24.63z"/>
		<path fill="#6D8D24" d="M169.924,18.829l-0.003,28.558c0,0.23,0.19,0.425,0.428,0.425h5.03c0.238,0,0.427-0.194,0.427-0.425
			V18.829H169.924z"/>
		<path fill="#6D8D24" d="M202.416,18.719h-5.562h-0.129v23.968h-2.796V18.719h-13.739l0.014,28.661c0,0.236,0.181,0.426,0.4,0.426
			h4.738c0.224,0,0.402-0.189,0.402-0.426l-0.007-23.14h2.997v23.571h13.669h0.013V24.24h2.984l0.007,23.14
			c0,0.236,0.179,0.426,0.394,0.426h4.652c0.217,0,0.392-0.189,0.392-0.426V18.557L202.416,18.719z"/>
		<path fill="#6D8D24" d="M139.122,18.84h-5.072c-0.238,0-0.427,0.192-0.427,0.426l-0.004,23.374h-2.912V18.829h-14.303v28.558
			c0,0.23,0.192,0.425,0.427,0.425h4.934c0.231,0,0.415-0.194,0.415-0.425V24.231h3.122v23.58h14.247V21.478v-2.212
			C139.549,19.032,139.356,18.84,139.122,18.84z"/>
		<path fill="#6D8D24" d="M106.767,18.829h-11.16l-6.415,28.589c-0.031,0.217,0.108,0.39,0.325,0.39h5.021
			c0.221,0,0.434-0.173,0.504-0.39l1.073-4.851h10.141l1.09,4.863c0.064,0.217,0.281,0.39,0.502,0.39h5.021
			c0.217,0,0.359-0.173,0.326-0.39L106.767,18.829z M97.221,37.453l2.825-13.216h2.278l2.825,13.216H97.221z"/>
		<path fill="#6D8D24" d="M160.447,18.829h-11.165l-6.412,28.589c-0.033,0.217,0.107,0.39,0.327,0.39h5.021
			c0.219,0,0.434-0.173,0.5-0.39l1.074-4.851h10.145l1.085,4.863c0.066,0.217,0.283,0.39,0.502,0.39h5.021
			c0.222,0,0.357-0.173,0.328-0.39L160.447,18.829z M150.899,37.453l2.823-13.216h2.28l2.822,13.216H150.899z"/>
		<path fill="#6D8D24" d="M231.313,18.829H220.15l-6.414,28.589c-0.027,0.217,0.112,0.39,0.331,0.39h5.02
			c0.222,0,0.434-0.173,0.504-0.39l1.073-4.851h10.138l1.089,4.863c0.066,0.217,0.281,0.39,0.504,0.39h5.02
			c0.221,0,0.356-0.173,0.33-0.39L231.313,18.829z M221.77,37.453l2.825-13.216h2.28l2.825,13.216H221.77z"/>
	</g>
	<g enable-background="new    ">
		<path fill="#6D8D24" d="M73.602,63.366H71.67v3.416h-2.381V55.053h4.312c2.782,0,4.174,1.356,4.174,4.071
			c0,1.368-0.354,2.418-1.061,3.147C76.008,63.002,74.97,63.366,73.602,63.366z M71.67,61.331h1.914
			c1.185,0,1.777-0.735,1.777-2.207c0-0.725-0.145-1.245-0.432-1.562c-0.288-0.315-0.736-0.474-1.346-0.474H71.67V61.331z"/>
		<path fill="#6D8D24" d="M87.564,65.532c-0.73,0.971-1.987,1.457-3.77,1.457s-3.039-0.486-3.769-1.457
			c-0.73-0.973-1.096-2.493-1.096-4.562c0-2.07,0.365-3.608,1.096-4.615c0.729-1.006,1.986-1.509,3.769-1.509
			s3.039,0.503,3.77,1.509c0.729,1.007,1.095,2.545,1.095,4.615C88.659,63.039,88.294,64.56,87.564,65.532z M81.889,64.014
			c0.34,0.604,0.975,0.905,1.906,0.905s1.567-0.301,1.906-0.905c0.339-0.604,0.509-1.615,0.509-3.036
			c0-1.42-0.173-2.451-0.518-3.096s-0.978-0.967-1.897-0.967s-1.552,0.322-1.897,0.967c-0.345,0.645-0.518,1.676-0.518,3.096
			C81.38,62.398,81.55,63.41,81.889,64.014z"/>
		<path fill="#6D8D24" d="M95.008,63.366h-1.932v3.416h-2.381V55.053h4.312c2.782,0,4.174,1.356,4.174,4.071
			c0,1.368-0.354,2.418-1.061,3.147C97.414,63.002,96.376,63.366,95.008,63.366z M93.076,61.331h1.914
			c1.185,0,1.777-0.735,1.777-2.207c0-0.725-0.145-1.245-0.432-1.562c-0.288-0.315-0.736-0.474-1.346-0.474h-1.914V61.331z"/>
		<path fill="#6D8D24" d="M103.132,62.866c0,1.369,0.695,2.053,2.087,2.053s2.087-0.684,2.087-2.053v-7.813h2.381v7.763
			c0,1.438-0.371,2.492-1.113,3.164c-0.741,0.674-1.86,1.01-3.354,1.01c-1.495,0-2.613-0.336-3.355-1.01
			c-0.741-0.672-1.112-1.727-1.112-3.164v-7.763h2.381V62.866z"/>
		<path fill="#6D8D24" d="M118.812,66.782h-6.676V55.053h2.381v9.625h4.295V66.782z"/>
		<path fill="#6D8D24" d="M119.293,66.782l2.64-11.729h4.519l2.64,11.729h-2.381l-0.465-2.121h-4.105l-0.466,2.121H119.293z
			 M123.778,57.019l-1.19,5.572h3.208l-1.189-5.572H123.778z"/>
		<path fill="#6D8D24" d="M133.041,62.85v3.933h-2.381V55.053h4.554c2.76,0,4.14,1.288,4.14,3.864c0,1.529-0.575,2.656-1.725,3.381
			l1.673,4.484h-2.604l-1.362-3.933H133.041z M136.508,60.296c0.276-0.344,0.414-0.799,0.414-1.362s-0.146-1.012-0.44-1.345
			c-0.293-0.334-0.716-0.5-1.268-0.5h-2.173v3.725h2.207C135.812,60.813,136.231,60.642,136.508,60.296z"/>
	</g>
	<path fill="#6D8D24" d="M30.5,7.011C18.093,7.011,8,17.104,8,29.511c0,12.406,10.093,22.5,22.5,22.5
		c12.406,0,22.5-10.094,22.5-22.5C53,17.104,42.906,7.011,30.5,7.011z M47.239,25.843h-4.435v-8.242
		C44.98,19.848,46.547,22.682,47.239,25.843z M18.409,17.372v8.471h-4.646C14.479,22.576,16.12,19.652,18.409,17.372z
		 M13.375,29.843h7.034c1.104,0,2-0.896,2-2V14.404c0.801-0.431,1.646-0.787,2.516-1.088v18.133h-5.728c-1.104,0-2,0.896-2,2v6.853
		C14.866,37.434,13.451,33.801,13.375,29.843z M21.17,43.873c0.013-0.09,0.027-0.179,0.027-0.271v-8.153h5.728c1.104,0,2-0.896,2-2
		V12.447c0.52-0.048,1.044-0.08,1.575-0.08c0.604,0,1.201,0.033,1.789,0.095v20.987c0,1.104,0.896,2,2,2h5.728v8.153
		c0,0.051,0.011,0.098,0.015,0.148c-2.728,1.831-6.006,2.902-9.531,2.902C27.059,46.653,23.857,45.625,21.17,43.873z M44.017,40.019
		v-6.569c0-1.104-0.896-2-2-2h-5.728V13.396c0.872,0.313,1.716,0.685,2.516,1.129v13.318c0,1.104,0.896,2,2,2h6.823
		C47.554,33.674,46.217,37.194,44.017,40.019z"/>
</g>
</svg>
