<?xml version="1.0" encoding="utf-8"?>
<!-- Generator: Adobe Illustrator 15.0.0, SVG Export Plug-In . SVG Version: 6.00 Build 0)  -->
<!DOCTYPE svg PUBLIC "-//W3C//DTD SVG 1.1//EN" "http://www.w3.org/Graphics/SVG/1.1/DTD/svg11.dtd">
<svg version="1.1" id="Layer_1" xmlns="http://www.w3.org/2000/svg" xmlns:xlink="http://www.w3.org/1999/xlink" x="0px" y="0px"
	 width="187px" height="74px" viewBox="0 0 187 74" enable-background="new 0 0 187 74" xml:space="preserve">
<g>
	<g>
		<path fill="#6D8D24" d="M110.755,11.364c0-1.581,1.279-2.86,2.865-2.86c1.583,0,2.864,1.279,2.864,2.86
			c0,1.584-1.281,2.862-2.864,2.862C112.034,14.227,110.755,12.948,110.755,11.364z"/>
		<path fill="#6D8D24" d="M14.623,22.759h12.554c0.234,0,0.421-0.186,0.421-0.418v-4.953c0-0.228-0.187-0.424-0.421-0.424H14.623
			c-3.421,0-6.204,2.62-6.204,5.839v17.159c0,3.22,2.783,5.978,6.204,5.978h12.546c0.234,0,0.429-0.194,0.429-0.425v-5.048
			c0-0.236-0.194-0.425-0.429-0.425H14.623c-0.225,0-0.411,0.044-0.411-0.222V23.005C14.211,22.771,14.398,22.759,14.623,22.759z"/>
		<path fill="#6D8D24" d="M110.758,16.957l-0.003,28.558c0,0.23,0.19,0.425,0.428,0.425h5.03c0.238,0,0.427-0.194,0.427-0.425
			V16.957H110.758z"/>
		<path fill="#6D8D24" d="M143.25,16.848h-5.562h-0.129v23.967h-2.796V16.848h-13.739l0.014,28.66c0,0.236,0.181,0.426,0.4,0.426
			h4.738c0.224,0,0.402-0.189,0.402-0.426l-0.007-23.139h2.997v23.57h13.669h0.013v-23.57h2.984l0.007,23.139
			c0,0.236,0.179,0.426,0.394,0.426h4.652c0.217,0,0.392-0.189,0.392-0.426V16.685L143.25,16.848z"/>
		<path fill="#6D8D24" d="M79.957,16.968h-5.072c-0.238,0-0.427,0.192-0.427,0.427l-0.004,23.373h-2.912V16.957H57.239v28.558
			c0,0.23,0.192,0.425,0.427,0.425h4.934c0.231,0,0.415-0.194,0.415-0.425V22.36h3.122v23.579h14.247V19.606v-2.212
			C80.383,17.16,80.191,16.968,79.957,16.968z"/>
		<path fill="#6D8D24" d="M47.601,16.957h-11.16l-6.415,28.589c-0.031,0.217,0.108,0.39,0.325,0.39h5.021
			c0.221,0,0.434-0.173,0.504-0.39l1.073-4.85H47.09l1.09,4.862c0.064,0.217,0.281,0.39,0.502,0.39h5.021
			c0.217,0,0.359-0.173,0.326-0.39L47.601,16.957z M38.055,35.582l2.825-13.217h2.278l2.825,13.217H38.055z"/>
		<path fill="#6D8D24" d="M101.281,16.957H90.117l-6.412,28.589c-0.033,0.217,0.107,0.39,0.327,0.39h5.021
			c0.219,0,0.434-0.173,0.5-0.39l1.074-4.85h10.144l1.085,4.862c0.066,0.217,0.283,0.39,0.502,0.39h5.021
			c0.222,0,0.357-0.173,0.328-0.39L101.281,16.957z M91.734,35.582l2.823-13.217h2.28l2.822,13.217H91.734z"/>
		<path fill="#6D8D24" d="M172.147,16.957h-11.163l-6.414,28.589c-0.027,0.217,0.112,0.39,0.331,0.39h5.02
			c0.222,0,0.434-0.173,0.504-0.39l1.073-4.85h10.138l1.089,4.862c0.066,0.217,0.281,0.39,0.504,0.39h5.02
			c0.221,0,0.356-0.173,0.33-0.39L172.147,16.957z M162.604,35.582l2.825-13.217h2.28l2.825,13.217H162.604z"/>
	</g>
	<g enable-background="new    ">
		<path fill="#6D8D24" d="M55.829,60.701v-2.07h3.415v6.09c-1.645,0.264-2.979,0.396-4.002,0.396c-1.828,0-3.085-0.488-3.769-1.467
			c-0.685-0.977-1.026-2.529-1.026-4.656c0-2.128,0.356-3.663,1.069-4.605c0.713-0.943,1.926-1.415,3.64-1.415
			c1.069,0,2.225,0.12,3.467,0.362l0.621,0.121l-0.069,1.846c-1.38-0.15-2.51-0.225-3.389-0.225c-0.88,0-1.498,0.104-1.854,0.311
			s-0.618,0.59-0.785,1.146c-0.167,0.559-0.25,1.513-0.25,2.863c0,1.352,0.167,2.298,0.5,2.838c0.334,0.541,1.023,0.811,2.07,0.811
			l1.432-0.068v-2.277H55.829z"/>
		<path fill="#6D8D24" d="M61.486,64.91V53.181h4.02l2.828,9.659h0.173v-9.659h2.381V64.91h-3.916l-2.933-9.66h-0.172v9.66H61.486z"
			/>
		<path fill="#6D8D24" d="M75.717,60.994c0,1.369,0.695,2.053,2.087,2.053s2.087-0.684,2.087-2.053v-7.813h2.381v7.763
			c0,1.438-0.371,2.492-1.113,3.164c-0.741,0.674-1.86,1.01-3.354,1.01c-1.495,0-2.613-0.336-3.355-1.01
			c-0.741-0.672-1.112-1.727-1.112-3.164v-7.763h2.381V60.994z"/>
		<path fill="#6D8D24" d="M83.704,64.771l4.968-12.246l2.035,0.725l-4.968,12.246L83.704,64.771z"/>
		<path fill="#6D8D24" d="M99.158,64.91h-6.676V53.181h2.381v9.625h4.295V64.91z"/>
		<path fill="#6D8D24" d="M100.623,64.91V53.181h2.381V64.91H100.623z"/>
		<path fill="#6D8D24" d="M105.557,64.91V53.181h4.02l2.828,9.659h0.174v-9.659h2.381V64.91h-3.916l-2.934-9.66h-0.172v9.66H105.557
			z"/>
		<path fill="#6D8D24" d="M119.787,60.994c0,1.369,0.695,2.053,2.088,2.053c1.391,0,2.086-0.684,2.086-2.053v-7.813h2.381v7.763
			c0,1.438-0.371,2.492-1.113,3.164c-0.74,0.674-1.859,1.01-3.354,1.01c-1.496,0-2.613-0.336-3.355-1.01
			c-0.742-0.672-1.113-1.727-1.113-3.164v-7.763h2.381V60.994z"/>
		<path fill="#6D8D24" d="M130.309,53.181l2.174,4.312l2.227-4.312h2.465l-3.381,5.985l3.381,5.744h-2.639l-2.174-4.054
			l-2.225,4.054h-2.467l3.381-5.623l-3.381-6.106H130.309z"/>
	</g>
</g>
</svg>
