<?xml version="1.0" encoding="utf-8"?>
<!-- Generator: Adobe Illustrator 15.0.0, SVG Export Plug-In . SVG Version: 6.00 Build 0)  -->
<!DOCTYPE svg PUBLIC "-//W3C//DTD SVG 1.1//EN" "http://www.w3.org/Graphics/SVG/1.1/DTD/svg11.dtd">
<svg version="1.1" id="Layer_1" xmlns="http://www.w3.org/2000/svg" xmlns:xlink="http://www.w3.org/1999/xlink" x="0px" y="0px"
	 width="229.5px" height="78px" viewBox="0 0 229.5 78" enable-background="new 0 0 229.5 78" xml:space="preserve">
<g>
	<g>
		<g>
			<circle fill="#6D8D24" cx="163.525" cy="21.997" r="2.647"/>
			<path fill="#6D8D24" d="M72.036,32.526h11.602c0.215,0,0.387-0.173,0.387-0.386v-4.578c0-0.213-0.172-0.39-0.387-0.39H72.036
				c-3.162,0-5.734,2.42-5.734,5.396v15.857c0,2.977,2.572,5.523,5.734,5.523h11.596c0.217,0,0.393-0.176,0.393-0.395v-4.664
				c0-0.217-0.176-0.393-0.393-0.393H72.036c-0.207,0-0.38,0.041-0.38-0.207V32.754C71.656,32.539,71.829,32.526,72.036,32.526z"/>
			<path fill="#6D8D24" d="M160.881,27.168l-0.003,26.387c0,0.217,0.178,0.395,0.395,0.395h4.649c0.218,0,0.394-0.178,0.394-0.395
				V27.168H160.881z"/>
			<path fill="#6D8D24" d="M190.911,27.064h-5.143h-0.119v22.148h-2.588V27.064h-12.695l0.012,26.488
				c0,0.217,0.167,0.395,0.371,0.395h4.382c0.204,0,0.37-0.178,0.37-0.395l-0.006-21.388h2.77v21.784h12.631h0.016V32.165h2.754
				l0.006,21.388c0,0.217,0.165,0.395,0.364,0.395h4.302c0.197,0,0.359-0.178,0.359-0.395V26.912L190.911,27.064z"/>
			<path fill="#6D8D24" d="M132.411,27.175h-4.684c-0.219,0-0.396,0.178-0.396,0.394l-0.004,21.6h-2.688v-22h-13.219v26.387
				c0,0.217,0.178,0.395,0.392,0.395h4.562c0.212,0,0.385-0.178,0.385-0.395V32.157h2.883v21.792h13.166V29.615v-2.047
				C132.808,27.353,132.634,27.175,132.411,27.175z"/>
			<path fill="#6D8D24" d="M102.517,27.168H92.198l-5.929,26.42c-0.026,0.201,0.102,0.359,0.306,0.359h4.639
				c0.205,0,0.402-0.158,0.467-0.359l0.99-4.484h9.371l1.008,4.492c0.059,0.201,0.258,0.361,0.461,0.361h4.641
				c0.203,0,0.332-0.16,0.305-0.361L102.517,27.168z M93.693,44.378l2.61-12.215h2.105l2.608,12.215H93.693z"/>
			<path fill="#6D8D24" d="M152.121,27.168h-10.319l-5.924,26.42c-0.027,0.201,0.098,0.359,0.305,0.359h4.639
				c0.205,0,0.4-0.158,0.463-0.359l0.993-4.484h9.372l1.006,4.492c0.061,0.201,0.26,0.361,0.463,0.361h4.641
				c0.202,0,0.33-0.16,0.304-0.361L152.121,27.168z M143.299,44.378l2.612-12.215h2.105l2.607,12.215H143.299z"/>
			<path fill="#6D8D24" d="M217.612,27.168h-10.315l-5.929,26.42c-0.024,0.201,0.104,0.359,0.308,0.359h4.637
				c0.204,0,0.405-0.158,0.466-0.359l0.99-4.484h9.374l1.003,4.492c0.065,0.201,0.262,0.361,0.466,0.361h4.64
				c0.203,0,0.329-0.16,0.305-0.361L217.612,27.168z M208.792,44.378l2.612-12.215h2.106l2.609,12.215H208.792z"/>
		</g>
		<g enable-background="new    ">
			<path fill="#6D8D24" d="M67.888,71.486v-10.84h7.014v1.912h-4.814v2.535h3.858v1.881h-3.858v2.598h4.814v1.914H67.888z"/>
			<path fill="#6D8D24" d="M80.37,71.486h-3.65v-10.84h3.65c0.936,0,1.705,0.098,2.312,0.295c0.605,0.197,1.075,0.521,1.411,0.973
				c0.334,0.451,0.565,0.982,0.693,1.594c0.127,0.611,0.191,1.406,0.191,2.383c0,0.979-0.059,1.789-0.176,2.432
				s-0.338,1.217-0.662,1.721c-0.324,0.506-0.794,0.871-1.41,1.1C82.112,71.371,81.327,71.486,80.37,71.486z M82.682,67.182
				c0.021-0.34,0.032-0.811,0.032-1.41s-0.021-1.082-0.064-1.443s-0.143-0.689-0.303-0.988c-0.159-0.297-0.396-0.502-0.709-0.613
				c-0.314-0.111-0.736-0.168-1.268-0.168h-1.451v7.014h1.451c0.797,0,1.376-0.201,1.737-0.605
				C82.415,68.639,82.606,68.043,82.682,67.182z"/>
			<path fill="#6D8D24" d="M88.993,67.867c0,1.266,0.644,1.896,1.93,1.896c1.285,0,1.929-0.631,1.929-1.896v-7.221h2.2v7.174
				c0,1.328-0.344,2.303-1.029,2.924c-0.686,0.623-1.719,0.934-3.1,0.934c-1.382,0-2.416-0.311-3.101-0.934
				c-0.686-0.621-1.028-1.596-1.028-2.924v-7.174h2.199V67.867z"/>
			<path fill="#6D8D24" d="M104.185,71.311c-1.127,0.244-2.141,0.367-3.045,0.367c-0.902,0-1.625-0.111-2.168-0.336
				c-0.541-0.223-0.967-0.578-1.275-1.066c-0.308-0.49-0.52-1.062-0.637-1.723c-0.117-0.658-0.176-1.488-0.176-2.486
				c0-2.094,0.295-3.553,0.885-4.375c0.59-0.824,1.676-1.236,3.26-1.236c0.914,0,1.971,0.143,3.172,0.43l-0.062,1.754
				c-1.053-0.158-1.928-0.238-2.623-0.238c-0.696,0-1.193,0.092-1.49,0.279c-0.298,0.186-0.518,0.539-0.662,1.059
				c-0.143,0.521-0.215,1.408-0.215,2.662s0.146,2.123,0.438,2.607c0.292,0.482,0.877,0.725,1.753,0.725
				c0.877,0,1.81-0.074,2.799-0.223L104.185,71.311z"/>
			<path fill="#6D8D24" d="M105.062,71.486l2.439-10.84h4.176l2.439,10.84h-2.2l-0.431-1.961h-3.793l-0.432,1.961H105.062z
				 M109.206,62.463l-1.1,5.15h2.965l-1.1-5.15H109.206z"/>
			<path fill="#6D8D24" d="M114.005,62.592v-1.945h7.971v1.945h-2.87v8.895h-2.2v-8.895H114.005z"/>
			<path fill="#6D8D24" d="M123.361,71.486v-10.84h2.2v10.84H123.361z"/>
			<path fill="#6D8D24" d="M133.786,60.646h2.312l-2.52,10.84h-4.064l-2.52-10.84h2.312l1.881,8.926h0.717L133.786,60.646z"/>
			<path fill="#6D8D24" d="M144.873,70.33c-0.675,0.898-1.836,1.348-3.483,1.348c-1.646,0-2.809-0.449-3.482-1.348
				c-0.676-0.898-1.013-2.303-1.013-4.217c0-1.912,0.337-3.334,1.013-4.264c0.674-0.93,1.836-1.395,3.482-1.395
				c1.647,0,2.809,0.465,3.483,1.395s1.013,2.352,1.013,4.264C145.886,68.027,145.548,69.432,144.873,70.33z M139.628,68.928
				c0.314,0.559,0.901,0.836,1.762,0.836c0.861,0,1.448-0.277,1.762-0.836s0.471-1.492,0.471-2.807c0-1.311-0.16-2.266-0.479-2.861
				c-0.318-0.594-0.903-0.893-1.754-0.893c-0.85,0-1.434,0.299-1.753,0.893c-0.319,0.596-0.479,1.551-0.479,2.861
				C139.158,67.436,139.315,68.369,139.628,68.928z"/>
		</g>
	</g>
	<path fill="#6D8D24" d="M52.18,38.464l-15.342-9.495V10.524c-0.023-2.436-1.736-4.202-4.113-4.202
		c-0.714,0.004-1.445,0.179-2.167,0.521L9.731,16.586c-2.255,1.056-3.813,3.658-3.789,6.32l0.02,22.023l17.416,10.861
		c1.075,0.84,2.607,1.32,4.193,1.32c1.21,0,2.371-0.27,3.352-0.783l20.397-10.615c0.707-0.365,1.291-0.836,1.733-1.404
		C54.501,42.445,54.149,39.998,52.18,38.464z M31.95,28.268l-14.085,6.626v-8.083l9.311-4.516V18.45l-12.846,6.349l-0.199,0.096
		v14.821l12.001,7.874l0.178,0.117l12.716-6.886l-0.491-0.327c-0.447-0.295-0.856-0.617-1.274-0.938
		c-0.425-0.331-0.852-0.661-1.314-0.971l-0.17-0.115l-9.183,4.534l-7.804-4.994l13.993-6.227l15.566,9.965L28.667,51.99
		c-0.29,0.154-0.678,0.236-1.096,0.236c-0.56,0-1-0.15-1.222-0.318l-15.886-9.543V22.866c-0.003-0.48,0.572-1.493,1.343-1.85
		l20.145-9.428V28.268z"/>
</g>
</svg>
