<?xml version="1.0" encoding="utf-8"?>
<!-- Generator: Adobe Illustrator 15.0.0, SVG Export Plug-In . SVG Version: 6.00 Build 0)  -->
<!DOCTYPE svg PUBLIC "-//W3C//DTD SVG 1.1//EN" "http://www.w3.org/Graphics/SVG/1.1/DTD/svg11.dtd">
<svg version="1.1" id="Layer_1" xmlns="http://www.w3.org/2000/svg" xmlns:xlink="http://www.w3.org/1999/xlink" x="0px" y="0px"
	 width="214.5px" height="58px" viewBox="0 0 214.5 58" enable-background="new 0 0 214.5 58" xml:space="preserve">
<g>
	<circle fill="#6D8D24" cx="151.268" cy="5.511" r="2.645"/>
	<path fill="#6D8D24" d="M59.863,16.03h11.591c0.211,0,0.386-0.175,0.386-0.385v-4.576c0-0.21-0.175-0.39-0.386-0.39H59.863
		c-3.159,0-5.729,2.418-5.729,5.391v15.844c0,2.97,2.57,5.519,5.729,5.519h11.585c0.215,0,0.392-0.176,0.392-0.395V32.38
		c0-0.217-0.177-0.397-0.392-0.397H59.863c-0.204,0-0.38,0.046-0.38-0.201V16.257C59.483,16.04,59.659,16.03,59.863,16.03z"/>
	<path fill="#6D8D24" d="M148.626,10.673v26.365c0,0.219,0.178,0.395,0.393,0.395h4.646c0.217,0,0.393-0.176,0.393-0.395V10.673
		H148.626z"/>
	<path fill="#6D8D24" d="M178.63,10.573h-5.134h-0.12v22.13h-2.586v-22.13h-12.684l0.011,26.463c0,0.217,0.164,0.395,0.37,0.395
		h4.379c0.202,0,0.37-0.178,0.37-0.395l-0.011-21.37h2.768v21.767h12.623h0.014V15.666h2.752l0.007,21.37
		c0,0.217,0.161,0.395,0.366,0.395h4.295c0.199,0,0.362-0.178,0.362-0.395V10.419L178.63,10.573z"/>
	<path fill="#6D8D24" d="M120.185,10.682h-4.678c-0.22,0-0.396,0.18-0.396,0.395l-0.002,21.58h-2.692V10.673H99.212v26.365
		c0,0.219,0.178,0.395,0.392,0.395h4.557c0.21,0,0.384-0.176,0.384-0.395V15.659h2.883v21.773h13.154V13.119v-2.043
		C120.581,10.861,120.403,10.682,120.185,10.682z"/>
	<path fill="#6D8D24" d="M90.313,10.673H80.003l-5.92,26.398c-0.027,0.203,0.102,0.359,0.307,0.359h4.635
		c0.203,0,0.402-0.156,0.465-0.359l0.986-4.479h9.368l1.003,4.488c0.061,0.197,0.26,0.359,0.464,0.359h4.634
		c0.204,0,0.334-0.162,0.306-0.359L90.313,10.673z M81.503,27.868l2.605-12.204h2.104l2.609,12.204H81.503z"/>
	<path fill="#6D8D24" d="M139.874,10.673h-10.308l-5.922,26.398c-0.026,0.203,0.104,0.359,0.304,0.359h4.638
		c0.202,0,0.4-0.156,0.464-0.359l0.99-4.479h9.367l1.002,4.488c0.062,0.197,0.258,0.359,0.467,0.359h4.631
		c0.205,0,0.331-0.162,0.305-0.359L139.874,10.673z M131.062,27.868l2.607-12.204h2.106l2.604,12.204H131.062z"/>
	<path fill="#6D8D24" d="M205.312,10.673h-10.308l-5.925,26.398c-0.025,0.203,0.104,0.359,0.307,0.359h4.637
		c0.201,0,0.399-0.156,0.461-0.359l0.99-4.479h9.367l1.006,4.488c0.059,0.197,0.258,0.359,0.461,0.359h4.633
		c0.207,0,0.331-0.162,0.305-0.359L205.312,10.673z M196.499,27.868l2.607-12.204h2.103l2.608,12.204H196.499z"/>
	<g enable-background="new    ">
		<path fill="#6D8D24" d="M62.578,54.774c-1.126,0.244-2.14,0.367-3.042,0.367s-1.625-0.111-2.166-0.335
			c-0.541-0.223-0.967-0.578-1.273-1.067c-0.309-0.488-0.521-1.061-0.638-1.72c-0.117-0.658-0.175-1.486-0.175-2.484
			c0-2.092,0.294-3.549,0.883-4.372c0.59-0.822,1.676-1.234,3.258-1.234c0.912,0,1.969,0.144,3.169,0.43L62.53,46.11
			c-1.051-0.158-1.925-0.238-2.62-0.238s-1.192,0.094-1.489,0.279s-0.518,0.539-0.66,1.059c-0.145,0.521-0.215,1.406-0.215,2.66
			c0,1.252,0.145,2.121,0.438,2.604c0.292,0.483,0.876,0.725,1.752,0.725s1.808-0.074,2.795-0.223L62.578,54.774z"/>
		<path fill="#6D8D24" d="M71.76,53.796c-0.675,0.896-1.834,1.346-3.479,1.346c-1.646,0-2.807-0.449-3.48-1.346
			c-0.674-0.897-1.012-2.302-1.012-4.213s0.338-3.331,1.012-4.26c0.674-0.93,1.834-1.395,3.48-1.395
			c1.646,0,2.805,0.465,3.479,1.395c0.675,0.929,1.011,2.349,1.011,4.26S72.435,52.898,71.76,53.796z M66.521,52.394
			c0.312,0.559,0.899,0.836,1.76,0.836c0.859,0,1.446-0.277,1.76-0.836c0.312-0.557,0.47-1.491,0.47-2.803
			c0-1.311-0.159-2.264-0.478-2.859c-0.318-0.594-0.902-0.891-1.752-0.891s-1.434,0.297-1.752,0.891
			c-0.318,0.596-0.479,1.549-0.479,2.859C66.05,50.902,66.206,51.837,66.521,52.394z"/>
		<path fill="#6D8D24" d="M80.813,54.95H74.65V44.12h2.198v8.887h3.965V54.95z"/>
		<path fill="#6D8D24" d="M82.167,54.95V44.12h2.198v10.83H82.167z"/>
		<path fill="#6D8D24" d="M86.722,44.12h4.253c1.125,0,1.97,0.226,2.532,0.677c0.562,0.452,0.844,1.182,0.844,2.19
			c0,0.605-0.09,1.086-0.271,1.441s-0.488,0.672-0.924,0.947c0.478,0.201,0.831,0.494,1.06,0.876s0.342,0.913,0.342,1.593
			c0,1.051-0.308,1.832-0.924,2.341c-0.615,0.51-1.48,0.765-2.596,0.765h-4.316V44.12z M90.862,45.999H88.92v2.58h1.959
			c0.828,0,1.242-0.43,1.242-1.289C92.121,46.43,91.702,45.999,90.862,45.999z M90.927,50.427H88.92v2.645h2.007
			c0.478,0,0.83-0.096,1.059-0.287s0.343-0.541,0.343-1.051C92.328,50.862,91.86,50.427,90.927,50.427z"/>
		<path fill="#6D8D24" d="M98.619,51.319v3.631h-2.198V44.12h4.205c2.549,0,3.822,1.189,3.822,3.567
			c0,1.413-0.531,2.453-1.593,3.122l1.545,4.141h-2.405l-1.258-3.631H98.619z M101.82,48.962c0.255-0.318,0.382-0.738,0.382-1.258
			c0-0.521-0.135-0.935-0.406-1.242c-0.27-0.309-0.66-0.463-1.17-0.463h-2.007v3.44h2.038
			C101.178,49.439,101.565,49.28,101.82,48.962z"/>
		<path fill="#6D8D24" d="M105.229,41.588l4.014-1.688l0.653,1.912l-4.141,1.258L105.229,41.588z M106.296,54.95V44.12h2.197v10.83
			H106.296z"/>
	</g>
	<polygon fill="#6D8D24" points="40.538,9.014 40.538,2.858 10.92,2.858 10.92,30.489 4.252,30.489 4.252,36.835 40.411,36.835 
		40.538,36.835 40.538,30.682 40.411,30.682 40.411,30.489 28.874,30.489 28.874,21.578 40.538,21.578 40.538,15.423 22.717,15.423 
		22.717,30.489 17.073,30.489 17.073,9.014 	"/>
</g>
</svg>
