<?xml version="1.0" encoding="utf-8"?>
<!-- Generator: Adobe Illustrator 15.0.0, SVG Export Plug-In . SVG Version: 6.00 Build 0)  -->
<!DOCTYPE svg PUBLIC "-//W3C//DTD SVG 1.1//EN" "http://www.w3.org/Graphics/SVG/1.1/DTD/svg11.dtd">
<svg version="1.1" id="Layer_1" xmlns="http://www.w3.org/2000/svg" xmlns:xlink="http://www.w3.org/1999/xlink" x="0px" y="0px"
	 width="234.333px" height="67.667px" viewBox="0 0 234.333 67.667" enable-background="new 0 0 234.333 67.667"
	 xml:space="preserve">
<g>
	<g>
		<circle fill="#6D8D24" cx="166.248" cy="9.932" r="2.775"/>
		<path fill="#6D8D24" d="M70.35,20.968h12.163c0.221,0,0.399-0.179,0.399-0.405v-4.796c0-0.223-0.179-0.411-0.399-0.411H70.35
			c-3.313,0-6.01,2.537-6.01,5.656v16.622c0,3.121,2.696,5.791,6.01,5.791h12.151c0.229,0,0.411-0.189,0.411-0.412v-4.891
			c0-0.229-0.183-0.41-0.411-0.41H70.35c-0.219,0-0.4,0.043-0.4-0.215v-16.29C69.95,20.981,70.131,20.968,70.35,20.968z"/>
		<path fill="#6D8D24" d="M163.477,15.351l-0.004,27.662c0,0.223,0.189,0.412,0.417,0.412h4.872c0.227,0,0.415-0.189,0.415-0.412
			V15.351H163.477z"/>
		<path fill="#6D8D24" d="M194.955,15.243h-5.387h-0.13V38.46h-2.71V15.243h-13.306l0.014,27.764c0,0.227,0.174,0.412,0.385,0.412
			h4.595c0.214,0,0.389-0.186,0.389-0.412l-0.009-22.415h2.9v22.833h13.243h0.016V20.592h2.887l0.007,22.415
			c0,0.227,0.171,0.412,0.381,0.412h4.508c0.213,0,0.379-0.186,0.379-0.412V15.084L194.955,15.243z"/>
		<path fill="#6D8D24" d="M133.634,15.359h-4.907c-0.229,0-0.415,0.185-0.415,0.412l-0.001,22.642h-2.822V15.351h-13.856v27.662
			c0,0.223,0.186,0.412,0.409,0.412h4.78c0.226,0,0.405-0.189,0.405-0.412v-22.43h3.021v22.842h13.803V17.917v-2.146
			C134.051,15.544,133.864,15.359,133.634,15.359z"/>
		<path fill="#6D8D24" d="M102.299,15.351H91.481l-6.212,27.693c-0.028,0.211,0.105,0.377,0.318,0.377h4.864
			c0.217,0,0.421-0.166,0.486-0.377l1.042-4.701h9.822l1.057,4.711c0.062,0.209,0.271,0.377,0.484,0.377h4.86
			c0.215,0,0.348-0.168,0.321-0.377L102.299,15.351z M93.051,33.393l2.733-12.806h2.21l2.73,12.806H93.051z"/>
		<path fill="#6D8D24" d="M154.296,15.351h-10.814l-6.214,27.693c-0.028,0.211,0.104,0.377,0.318,0.377h4.864
			c0.213,0,0.419-0.166,0.485-0.377l1.043-4.701h9.822l1.055,4.711c0.061,0.209,0.271,0.377,0.48,0.377h4.867
			c0.217,0,0.347-0.168,0.318-0.377L154.296,15.351z M145.048,33.393l2.734-12.806h2.21l2.733,12.806H145.048z"/>
		<path fill="#6D8D24" d="M222.947,15.351h-10.813l-6.218,27.693c-0.024,0.211,0.11,0.377,0.325,0.377h4.86
			c0.217,0,0.423-0.166,0.486-0.377l1.038-4.701h9.827l1.049,4.711c0.069,0.209,0.276,0.377,0.489,0.377h4.864
			c0.214,0,0.348-0.168,0.321-0.377L222.947,15.351z M213.703,33.393l2.731-12.806h2.21l2.734,12.806H213.703z"/>
	</g>
	<g enable-background="new    ">
		<path fill="#6D8D24" d="M72.779,61.618c-1.181,0.256-2.245,0.385-3.191,0.385c-0.947,0-1.705-0.117-2.272-0.352
			c-0.568-0.234-1.014-0.607-1.337-1.119s-0.546-1.113-0.669-1.805c-0.122-0.689-0.184-1.559-0.184-2.607
			c0-2.193,0.31-3.723,0.928-4.586s1.757-1.295,3.417-1.295c0.958,0,2.066,0.15,3.325,0.451l-0.067,1.838
			c-1.103-0.166-2.019-0.25-2.748-0.25s-1.251,0.098-1.562,0.291c-0.312,0.195-0.543,0.566-0.693,1.111
			c-0.15,0.547-0.226,1.477-0.226,2.791s0.153,2.225,0.459,2.732c0.307,0.508,0.919,0.76,1.839,0.76
			c0.919,0,1.896-0.078,2.932-0.234L72.779,61.618z"/>
		<path fill="#6D8D24" d="M82.412,60.591c-0.708,0.941-1.925,1.412-3.651,1.412s-2.943-0.471-3.651-1.412
			c-0.707-0.941-1.061-2.414-1.061-4.42c0-2.004,0.354-3.494,1.061-4.469c0.708-0.975,1.925-1.463,3.651-1.463
			s2.943,0.488,3.651,1.463c0.707,0.975,1.061,2.465,1.061,4.469C83.472,58.177,83.119,59.649,82.412,60.591z M76.914,59.12
			c0.329,0.586,0.944,0.877,1.847,0.877s1.518-0.291,1.847-0.877c0.328-0.584,0.492-1.564,0.492-2.941
			c0-1.375-0.167-2.375-0.501-2.998c-0.334-0.625-0.947-0.936-1.838-0.936c-0.892,0-1.504,0.311-1.838,0.936
			c-0.334,0.623-0.501,1.623-0.501,2.998C76.421,57.556,76.585,58.536,76.914,59.12z"/>
		<path fill="#6D8D24" d="M85.444,61.802V50.44h3.927l2.005,8.287l2.006-8.287h3.927v11.361h-2.307v-8.789h-0.25l-2.223,8.289
			h-2.306L88,53.013H87.75v8.789H85.444z"/>
		<path fill="#6D8D24" d="M101.987,58.009c0,1.326,0.674,1.988,2.021,1.988s2.021-0.662,2.021-1.988V50.44h2.307v7.52
			c0,1.393-0.359,2.414-1.078,3.064c-0.719,0.652-1.802,0.979-3.25,0.979s-2.531-0.326-3.25-0.979
			c-0.719-0.65-1.077-1.672-1.077-3.064v-7.52h2.306V58.009z"/>
		<path fill="#6D8D24" d="M110.708,61.802V50.44h3.894l2.74,9.357h0.167V50.44h2.306v11.361h-3.793l-2.84-9.357h-0.168v9.357
			H110.708z"/>
		<path fill="#6D8D24" d="M122.288,61.802V50.44h2.306v11.361H122.288z"/>
		<path fill="#6D8D24" d="M126.047,52.478V50.44h8.355v2.037h-3.008v9.324h-2.306v-9.324H126.047z"/>
		<path fill="#6D8D24" d="M134.286,61.802l2.557-11.361h4.378l2.557,11.361h-2.307l-0.451-2.055h-3.977l-0.451,2.055H134.286z
			 M138.63,52.345l-1.153,5.396h3.108l-1.153-5.396H138.63z"/>
		<path fill="#6D8D24" d="M147.602,57.993v3.809h-2.306V50.44h4.411c2.674,0,4.011,1.248,4.011,3.742
			c0,1.482-0.558,2.574-1.671,3.275l1.621,4.344h-2.523l-1.32-3.809H147.602z M150.961,55.519c0.267-0.334,0.4-0.773,0.4-1.318
			c0-0.547-0.142-0.98-0.426-1.305c-0.284-0.322-0.693-0.484-1.229-0.484h-2.105v3.609h2.14
			C150.287,56.021,150.694,55.854,150.961,55.519z"/>
		<path fill="#6D8D24" d="M155.656,61.802V50.44h2.306v11.361H155.656z"/>
		<path fill="#6D8D24" d="M168.297,60.591c-0.708,0.941-1.925,1.412-3.651,1.412s-2.943-0.471-3.651-1.412
			c-0.707-0.941-1.061-2.414-1.061-4.42c0-2.004,0.354-3.494,1.061-4.469c0.708-0.975,1.925-1.463,3.651-1.463
			s2.943,0.488,3.651,1.463c0.707,0.975,1.061,2.465,1.061,4.469C169.358,58.177,169.004,59.649,168.297,60.591z M162.799,59.12
			c0.329,0.586,0.944,0.877,1.847,0.877s1.518-0.291,1.847-0.877c0.328-0.584,0.492-1.564,0.492-2.941
			c0-1.375-0.167-2.375-0.501-2.998c-0.334-0.625-0.947-0.936-1.838-0.936c-0.892,0-1.504,0.311-1.838,0.936
			c-0.334,0.623-0.501,1.623-0.501,2.998C162.307,57.556,162.471,58.536,162.799,59.12z"/>
	</g>
	<g>
		<rect x="5.154" y="5.664" fill="#6D8D24" width="7.482" height="7.483"/>
		<polygon fill="#6D8D24" points="5.154,15.852 5.154,43.431 16.972,43.431 16.972,28.297 22.16,28.297 22.16,43.263 26.486,43.263 
			26.486,23.97 12.648,23.97 12.648,39.108 9.478,39.108 9.478,20.174 46.267,20.174 46.267,39.108 43.093,39.108 43.093,23.97 
			29.253,23.97 29.253,43.263 33.576,43.263 33.576,28.297 38.771,28.297 38.771,43.431 50.589,43.431 50.589,15.852 		"/>
		<rect x="43.103" y="5.664" fill="#6D8D24" width="7.484" height="7.483"/>
	</g>
</g>
</svg>
