<?xml version="1.0" encoding="utf-8"?>
<!-- Generator: Adobe Illustrator 15.0.0, SVG Export Plug-In . SVG Version: 6.00 Build 0)  -->
<!DOCTYPE svg PUBLIC "-//W3C//DTD SVG 1.1//EN" "http://www.w3.org/Graphics/SVG/1.1/DTD/svg11.dtd">
<svg version="1.1" id="Layer_1" xmlns="http://www.w3.org/2000/svg" xmlns:xlink="http://www.w3.org/1999/xlink" x="0px" y="0px"
	 width="224.333px" height="78px" viewBox="0 0 224.333 78" enable-background="new 0 0 224.333 78" xml:space="preserve">
<g>
	<g>
		<circle fill="#6D8D24" cx="159.277" cy="25.295" r="2.647"/>
		<path fill="#6D8D24" d="M67.788,35.825H79.39c0.215,0,0.387-0.173,0.387-0.386v-4.578c0-0.213-0.172-0.395-0.387-0.395H67.788
			c-3.162,0-5.735,2.421-5.735,5.4v15.855c0,2.976,2.573,5.523,5.735,5.523h11.596c0.217,0,0.393-0.177,0.393-0.394v-4.663
			c0-0.219-0.176-0.394-0.393-0.394H67.788c-0.207,0-0.382,0.042-0.382-0.206V36.051C67.406,35.836,67.581,35.825,67.788,35.825z"/>
		<path fill="#6D8D24" d="M156.633,30.465l-0.003,26.388c0,0.217,0.176,0.394,0.393,0.394h4.649c0.22,0,0.396-0.177,0.396-0.394
			V30.465H156.633z"/>
		<path fill="#6D8D24" d="M186.662,30.363h-5.141h-0.119v22.147h-2.588V30.363h-12.697l0.014,26.487
			c0,0.215,0.167,0.394,0.371,0.394h4.382c0.204,0,0.37-0.179,0.37-0.394l-0.008-21.387h2.771v21.782h12.631h0.014V35.464h2.754
			l0.008,21.387c0,0.215,0.163,0.394,0.364,0.394h4.302c0.197,0,0.359-0.179,0.359-0.394v-26.64L186.662,30.363z"/>
		<path fill="#6D8D24" d="M128.164,30.474h-4.684c-0.221,0-0.396,0.177-0.396,0.394l-0.004,21.6h-2.688V30.465h-13.219v26.388
			c0,0.217,0.178,0.394,0.392,0.394h4.562c0.212,0,0.383-0.177,0.383-0.394V35.456h2.885v21.79h13.166V32.912v-2.045
			C128.56,30.65,128.384,30.474,128.164,30.474z"/>
		<path fill="#6D8D24" d="M98.267,30.465H87.951l-5.929,26.417c-0.026,0.205,0.1,0.362,0.306,0.362h4.639
			c0.205,0,0.4-0.157,0.467-0.362l0.99-4.481h9.371l1.008,4.494c0.059,0.199,0.258,0.359,0.461,0.359h4.641
			c0.203,0,0.33-0.16,0.305-0.359L98.267,30.465z M89.446,47.675l2.61-12.213h2.105l2.608,12.213H89.446z"/>
		<path fill="#6D8D24" d="M147.874,30.465h-10.319l-5.924,26.417c-0.029,0.205,0.098,0.362,0.305,0.362h4.637
			c0.205,0,0.402-0.157,0.465-0.362l0.992-4.481h9.373l1.006,4.494c0.061,0.199,0.26,0.359,0.463,0.359h4.641
			c0.202,0,0.33-0.16,0.304-0.359L147.874,30.465z M139.051,47.675l2.612-12.213h2.105l2.607,12.213H139.051z"/>
		<path fill="#6D8D24" d="M213.365,30.465h-10.315l-5.929,26.417c-0.024,0.205,0.104,0.362,0.308,0.362h4.637
			c0.204,0,0.403-0.157,0.466-0.362l0.99-4.481h9.372l1.005,4.494c0.063,0.199,0.26,0.359,0.466,0.359h4.639
			c0.204,0,0.33-0.16,0.306-0.359L213.365,30.465z M204.544,47.675l2.61-12.213h2.108l2.607,12.213H204.544z"/>
	</g>
	<g enable-background="new    ">
		<path fill="#6D8D24" d="M70.51,74.606c-1.126,0.245-2.142,0.367-3.044,0.367c-0.904,0-1.627-0.111-2.168-0.335
			c-0.543-0.223-0.968-0.579-1.275-1.068c-0.309-0.488-0.521-1.062-0.639-1.721c-0.116-0.659-0.175-1.488-0.175-2.487
			c0-2.094,0.295-3.552,0.885-4.376c0.59-0.823,1.677-1.235,3.26-1.235c0.914,0,1.972,0.144,3.173,0.431l-0.064,1.754
			c-1.052-0.16-1.926-0.239-2.622-0.239s-1.192,0.093-1.49,0.278c-0.298,0.187-0.519,0.54-0.661,1.061
			c-0.145,0.521-0.216,1.408-0.216,2.662s0.146,2.123,0.438,2.606c0.292,0.483,0.877,0.725,1.754,0.725s1.809-0.074,2.797-0.223
			L70.51,74.606z"/>
		<path fill="#6D8D24" d="M71.387,74.782l2.438-10.84h4.177l2.438,10.84h-2.199l-0.43-1.961h-3.795l-0.43,1.961H71.387z
			 M75.532,65.76l-1.101,5.148h2.966l-1.101-5.148H75.532z"/>
		<path fill="#6D8D24" d="M84.091,71.147v3.635h-2.199v-10.84h4.209c2.55,0,3.825,1.19,3.825,3.571c0,1.413-0.532,2.454-1.595,3.124
			l1.547,4.145h-2.407l-1.259-3.635H84.091z M87.296,68.788c0.254-0.318,0.383-0.738,0.383-1.259s-0.137-0.936-0.407-1.243
			c-0.271-0.309-0.661-0.463-1.171-0.463h-2.01v3.443h2.041C86.653,69.267,87.041,69.107,87.296,68.788z"/>
		<path fill="#6D8D24" d="M91.775,74.782v-10.84h2.2v10.84H91.775z"/>
		<path fill="#6D8D24" d="M96.333,63.942h4.256c1.127,0,1.972,0.227,2.535,0.678c0.563,0.452,0.846,1.183,0.846,2.191
			c0,0.606-0.092,1.087-0.271,1.443c-0.182,0.355-0.489,0.672-0.925,0.948c0.478,0.202,0.831,0.494,1.06,0.877
			c0.229,0.382,0.344,0.914,0.344,1.594c0,1.052-0.309,1.833-0.926,2.343c-0.615,0.511-1.482,0.766-2.598,0.766h-4.32V63.942z
			 M100.478,65.823h-1.944v2.583h1.961c0.829,0,1.243-0.431,1.243-1.291C101.738,66.254,101.318,65.823,100.478,65.823z
			 M100.542,70.255h-2.009v2.646h2.009c0.479,0,0.831-0.096,1.061-0.287c0.228-0.191,0.342-0.542,0.342-1.052
			C101.945,70.691,101.477,70.255,100.542,70.255z"/>
		<path fill="#6D8D24" d="M105.005,74.782l2.439-10.84h4.176l2.439,10.84h-2.199l-0.431-1.961h-3.794l-0.431,1.961H105.005z
			 M109.15,65.76l-1.1,5.148h2.965l-1.1-5.148H109.15z"/>
		<path fill="#6D8D24" d="M119.034,74.782h-2.2v-4.384l-3.348-6.456h2.439l1.992,4.32l1.993-4.32h2.438l-3.315,6.456V74.782z"/>
	</g>
	<path fill="#6D8D24" d="M46.593,28.2l3.098-3.179L27.546,3.026L5.022,25.277l3.11,3.164l9.762-9.603l6.414,6.414l-9.495,9.499
		l9.34,9.338l-9.98,9.529l3.065,3.212l10.052-9.603l0.339,0.17l9.41,9.855l3.214-3.07L30.77,44.26l9.508-9.508l-9.497-9.498
		l6.301-6.301L46.593,28.2z M33.964,34.717l-6.439,6.146l-6.131-6.418l6.054-6.052l0.099,0.097l0.096-0.097L33.964,34.717z
		 M27.642,22.112l-0.096-0.093l-0.099,0.093l-6.36-6.357l6.287-6.24l6.523,6.342L27.642,22.112z"/>
</g>
</svg>
