<?xml version="1.0" encoding="utf-8"?>
<!-- Generator: Adobe Illustrator 15.0.0, SVG Export Plug-In . SVG Version: 6.00 Build 0)  -->
<!DOCTYPE svg PUBLIC "-//W3C//DTD SVG 1.1//EN" "http://www.w3.org/Graphics/SVG/1.1/DTD/svg11.dtd">
<svg version="1.1" id="Layer_1" xmlns="http://www.w3.org/2000/svg" xmlns:xlink="http://www.w3.org/1999/xlink" x="0px" y="0px"
	 width="257px" height="50px" viewBox="0 0 257 50" enable-background="new 0 0 257 50" xml:space="preserve">
<g>
	<g>
		<path fill="#6D8D24" d="M194.407,10.727c0-1.387,1.119-2.509,2.507-2.509c1.382,0,2.504,1.122,2.504,2.509
			c0,1.383-1.122,2.504-2.504,2.504C195.526,13.231,194.407,12.11,194.407,10.727z"/>
		<path fill="#6D8D24" d="M110.317,20.69H121.3c0.199,0,0.361-0.163,0.361-0.364v-4.332c0-0.203-0.162-0.371-0.361-0.371h-10.982
			c-2.993,0-5.427,2.289-5.427,5.107v15.012c0,2.813,2.434,5.225,5.427,5.225h10.974c0.204,0,0.37-0.164,0.37-0.37v-4.415
			c0-0.205-0.166-0.374-0.37-0.374h-10.974c-0.195,0-0.363,0.042-0.363-0.194v-14.71C109.954,20.702,110.122,20.69,110.317,20.69z"
			/>
		<path fill="#6D8D24" d="M194.411,15.618l-0.004,24.979c0,0.204,0.168,0.37,0.374,0.37h4.402c0.207,0,0.371-0.166,0.371-0.37
			V15.618H194.411z"/>
		<path fill="#6D8D24" d="M222.833,15.52h-4.863h-0.116v20.963h-2.447V15.52h-12.019l0.012,25.07c0,0.208,0.159,0.376,0.355,0.376
			h4.144c0.192,0,0.35-0.168,0.35-0.376l-0.007-20.241h2.622v20.617h11.956h0.014V20.349h2.605l0.009,20.241
			c0,0.208,0.155,0.376,0.345,0.376h4.07c0.187,0,0.343-0.168,0.343-0.376V15.377L222.833,15.52z"/>
		<path fill="#6D8D24" d="M167.464,15.626h-4.435c-0.206,0-0.376,0.164-0.376,0.372v20.444h-2.547V15.618h-12.512v24.979
			c0,0.204,0.167,0.37,0.37,0.37h4.318c0.2,0,0.364-0.166,0.364-0.37V20.341h2.729v20.625h12.461v-23.03v-1.938
			C167.838,15.791,167.67,15.626,167.464,15.626z"/>
		<path fill="#6D8D24" d="M139.167,15.618h-9.769l-5.607,25.01c-0.026,0.188,0.096,0.339,0.286,0.339h4.393
			c0.192,0,0.381-0.15,0.44-0.339l0.936-4.245h8.872l0.951,4.252c0.061,0.19,0.246,0.341,0.442,0.341h4.39
			c0.192,0,0.313-0.15,0.289-0.341L139.167,15.618z M130.816,31.91l2.469-11.562h1.993l2.471,11.562H130.816z"/>
		<path fill="#6D8D24" d="M186.119,15.618h-9.767l-5.61,25.01c-0.022,0.188,0.096,0.339,0.288,0.339h4.395
			c0.191,0,0.379-0.15,0.437-0.339l0.938-4.245h8.874l0.949,4.252c0.06,0.19,0.247,0.341,0.44,0.341h4.389
			c0.196,0,0.314-0.15,0.292-0.341L186.119,15.618z M177.769,31.91l2.469-11.562h1.997L184.7,31.91H177.769z"/>
		<path fill="#6D8D24" d="M248.108,15.618h-9.767l-5.608,25.01c-0.026,0.188,0.096,0.339,0.29,0.339h4.392
			c0.191,0,0.38-0.15,0.438-0.339l0.939-4.245h8.873l0.951,4.252c0.056,0.19,0.244,0.341,0.437,0.341h4.393
			c0.192,0,0.312-0.15,0.286-0.341L248.108,15.618z M239.76,31.91l2.471-11.562h1.995l2.471,11.562H239.76z"/>
	</g>
	<g enable-background="new    ">
		<path fill="#6D8D24" d="M60.736,33.887v-3.324h5.482v9.775c-2.642,0.424-4.781,0.637-6.424,0.637
			c-2.936,0-4.955-0.785-6.053-2.354c-1.095-1.57-1.646-4.062-1.646-7.477c0-3.414,0.572-5.88,1.716-7.393
			c1.146-1.516,3.091-2.269,5.843-2.269c1.717,0,3.574,0.193,5.567,0.58l0.996,0.194l-0.111,2.963
			c-2.217-0.241-4.028-0.358-5.441-0.358c-1.411,0-2.406,0.165-2.976,0.497c-0.572,0.332-0.993,0.947-1.259,1.841
			c-0.27,0.894-0.402,2.425-0.402,4.595s0.268,3.689,0.804,4.555c0.532,0.867,1.641,1.301,3.322,1.301l2.298-0.109v-3.654H60.736z"
			/>
		<path fill="#6D8D24" d="M69.815,40.643V21.814H82v3.323h-8.361v4.403h6.698v3.268h-6.698v4.511H82v3.324H69.815z"/>
		<path fill="#6D8D24" d="M98.018,38.635c-1.174,1.562-3.191,2.34-6.049,2.34c-2.863,0-4.88-0.778-6.048-2.34
			c-1.175-1.561-1.761-4.004-1.761-7.324c0-3.321,0.586-5.79,1.761-7.406c1.168-1.615,3.185-2.421,6.048-2.421
			c2.857,0,4.875,0.806,6.049,2.421c1.173,1.616,1.757,4.085,1.757,7.406C99.774,34.631,99.19,37.075,98.018,38.635z M88.906,36.2
			c0.545,0.969,1.566,1.451,3.062,1.451c1.492,0,2.515-0.482,3.061-1.451c0.542-0.972,0.814-2.595,0.814-4.872
			c0-2.284-0.276-3.938-0.83-4.973c-0.557-1.034-1.57-1.551-3.045-1.551c-1.479,0-2.494,0.517-3.049,1.551
			c-0.553,1.035-0.829,2.688-0.829,4.973C88.091,33.605,88.36,35.228,88.906,36.2z"/>
	</g>
	<path fill="#6D8D24" d="M23.903,4.363c-11.381,0-20.638,9.258-20.638,20.641c0,11.377,9.257,20.634,20.638,20.634
		c11.379,0,20.635-9.259,20.635-20.634C44.538,13.621,35.282,4.363,23.903,4.363z M27.312,9.322
		c5.689,1.239,10.262,5.493,11.943,11.008l-2.827,2.824l-0.617-4.034l-5.913-0.907l-0.905-5.913l-4.039-0.619L27.312,9.322z
		 M8.224,28.413l3.479-3.479l0.489,4.167l6.097,0.717l0.721,6.094l4.165,0.496l-3.946,3.948
		C13.716,38.672,9.463,34.101,8.224,28.413z M23.903,41.05c-0.34,0-0.665-0.027-0.999-0.047l6.891-6.891l-8.028-0.951l-0.719-6.092
		l-6.101-0.722L14,18.318l-6.118,6.119c0.296-8.399,7.057-15.161,15.455-15.458l-4.813,4.817l7.791,1.188l0.902,5.915l5.911,0.9
		l1.192,7.789l5.585-5.588c0.022,0.334,0.049,0.664,0.049,1.002C39.954,33.854,32.753,41.05,23.903,41.05z"/>
</g>
</svg>
